<!-- 生成物。編集するのは src/lineart/t-nut.svg の方。作り直す: node scripts/lineart.mjs build t-nut -->
<svg xmlns="http://www.w3.org/2000/svg" viewBox="0 0 240 240" role="img" data-term="t-nut"
     fill="none" stroke="#1a1a1a" stroke-linecap="round" stroke-linejoin="round">
  <title>爪付きナット</title>
  <desc>壁の断面。裏から差し込んだ爪付きナットに、表からホールドごとボルトを締め込む。</desc>

  <!-- 合板の壁（断面。左が裏、右が表） -->
  <path stroke-width="1.6" d="M 59.9 23.8 C 59.9 25.3 59.9 29.7 59.9 32.6 C 60 35.5 60 38.5 60 41.4 C 60 44.3 60 47.2 60 50.2 C 60.1 53.1 60.1 56 60.1 58.9 C 60.1 61.9 60.2 66.2 60.2 67.7"/>
  <path stroke-width="1.6" d="M 59.9 171.8 C 59.9 173.3 59.9 177.7 60 180.6 C 60 183.5 60 186.5 60 189.4 C 60 192.3 60 195.3 60.1 198.2 C 60.1 201.1 60.1 204 60.1 207 C 60.2 209.9 60.2 214.3 60.2 215.8"/>
  <path stroke-width="1.6" d="M 96.2 23.6 C 96.1 25.4 96.1 30.6 96.1 34 C 96.1 37.4 96.1 42.4 96.1 44"/>
  <path stroke-width="1.6" d="M 95.9 199.9 C 95.9 201.3 95.9 205.2 95.9 207.9 C 95.9 210.7 95.9 214.9 95.9 216.3"/>
  <path stroke-width="1.6" d="M 59.9 24 C 61.4 24 65.9 24 68.9 24 C 71.9 24 74.9 24 77.9 24 C 80.9 24 83.9 24 86.9 24 C 89.9 24 94.4 24 95.9 24"/>
  <path stroke-width="1.6" d="M 59.6 216 C 61.2 216 66.1 216 69.2 216 C 72.3 216 75.2 216 78.2 216 C 81.2 215.9 84.1 215.9 87.2 215.9 C 90.3 215.9 95.1 215.9 96.7 215.9"/>

  <!-- 合板の層（断面に出る単板の重なり） -->
  <path stroke-width="0.6" d="M 68.7 23.8 C 68.7 25.5 68.7 30.5 68.7 33.9 C 68.8 37.2 68.8 40.5 68.8 43.9 C 68.8 47.2 68.8 50.6 68.8 53.9 C 68.8 57.3 68.9 62.3 68.9 64"/>
  <path stroke-width="0.6" d="M 77.8 24 C 77.8 25.6 77.8 30.6 77.8 34 C 77.8 37.3 77.9 40.6 77.9 43.9 C 77.9 47.3 78 50.6 78 53.9 C 78 57.2 78.1 62.2 78.1 63.8"/>
  <path stroke-width="0.6" d="M 87 23.8 C 87 25.5 87 30.5 87 33.8 C 87 37.2 87 40.5 87 43.8 C 87 47.2 87 50.5 87 53.8 C 87.1 57.1 87.1 62.1 87.1 63.8"/>
  <path stroke-width="0.6" d="M 68.7 175.9 C 68.7 177.6 68.7 182.5 68.7 185.9 C 68.7 189.2 68.8 192.5 68.8 195.9 C 68.8 199.2 68.9 202.5 68.9 205.8 C 68.9 209.1 69 214.1 69 215.8"/>
  <path stroke-width="0.6" d="M 78.3 175.7 C 78.3 177.5 78.3 182.7 78.3 186.1 C 78.3 189.5 78.2 192.8 78.2 196.1 C 78.2 199.4 78.2 202.7 78.2 206.1 C 78.1 209.4 78.1 214.4 78.1 216.1"/>
  <path stroke-width="0.6" d="M 86.9 175.7 C 86.9 177.4 86.9 182.4 86.9 185.7 C 86.9 189.1 86.9 192.4 86.9 195.8 C 86.9 199.2 86.9 202.5 86.9 205.9 C 86.9 209.2 86.9 214.3 86.9 216"/>

  <!-- 爪付きナット：つば（壁の裏面に密着する円板） -->
  <path stroke-width="1.6" d="M 60 67.6 C 58.7 67.7 54.7 67.7 52 67.7 C 49.3 67.7 45.3 66.1 44 67.7 C 42.6 69.3 43.9 74.1 43.9 77.3 C 43.9 80.4 43.9 83.6 43.9 86.8 C 43.9 90 43.8 93.2 43.8 96.4 C 43.8 99.6 43.8 102.7 43.8 105.9 C 43.8 109.1 43.8 112.3 43.8 115.4 C 43.7 118.6 43.8 121.7 43.7 124.9 C 43.7 128 43.7 131.2 43.7 134.3 C 43.7 137.5 43.7 140.6 43.7 143.8 C 43.7 146.9 43.7 150.1 43.7 153.2 C 43.6 156.4 43.6 159.5 43.6 162.7 C 43.6 165.8 42.3 170.6 43.6 172.1 C 44.9 173.7 48.9 172.1 51.6 172.1 C 54.2 172.1 58.2 172.1 59.5 172.1"/>

  <!-- 爪付きナット：筒の外側（壁の穴を貫いて表面まで届く） -->
  <path stroke-width="1" d="M 59.9 96.1 C 61.4 96.1 66.2 96.1 69.3 96.1 C 72.3 96.1 75.2 96.1 78.2 96.1 C 81.2 96.1 84.2 96.1 87.2 96 C 90.2 96 94.6 96 96.1 96"/>
  <path stroke-width="1" d="M 60.1 144.3 C 61.6 144.2 66.1 144.2 69.1 144.2 C 72.1 144.2 75.1 144.2 78.1 144.2 C 81.1 144.1 84.1 144.1 87.1 144.1 C 90.1 144 94.7 144 96.2 144"/>

  <!-- 筒の内側のねじ山（ここでボルトが噛む） -->
  <path stroke-width="0.6" d="M 67.9 100.9 C 67.9 101.9 67.9 105.9 67.9 106.9"/>
  <path stroke-width="0.6" d="M 76.2 101.1 C 76.2 102.1 76.2 106.1 76.2 107.1"/>
  <path stroke-width="0.6" d="M 84.1 101 C 84.1 102 84.1 106 84.1 107"/>
  <path stroke-width="0.6" d="M 91.8 100.9 C 91.8 101.9 91.8 106 91.8 107"/>
  <path stroke-width="0.6" d="M 68 133.1 C 68 134.1 68 138.1 68 139.1"/>
  <path stroke-width="0.6" d="M 75.9 133 C 75.9 134 75.9 138 75.9 139"/>
  <path stroke-width="0.6" d="M 84.1 133.1 C 84.1 134.1 84.1 138.1 84.1 139.1"/>
  <path stroke-width="0.6" d="M 92 132.9 C 92 133.9 92 137.9 92 138.9"/>

  <!-- 爪：つばの縁から折れ曲がり、木に食い込んで回り止めになる -->
  <path stroke="#6b1a14" stroke-width="1" d="M 59.7 69.9 C 61.3 70.3 65.9 71.5 69.1 72.2 C 72.2 73 75.3 73.8 78.4 74.6 C 81.5 75.4 87.7 76.2 87.7 77 C 87.7 77.8 81.5 78.7 78.4 79.5 C 75.3 80.3 72.3 81 69.1 81.9 C 65.9 82.7 60.9 84 59.2 84.4"/>
  <path stroke="#6b1a14" stroke-width="1" d="M 60.1 170.3 C 61.6 169.9 66.3 168.7 69.4 167.9 C 72.5 167.1 75.7 166.3 78.8 165.5 C 81.9 164.7 88.1 163.9 88.1 163.1 C 88.1 162.3 81.9 161.5 78.8 160.7 C 75.7 159.8 72.6 159 69.4 158.2 C 66.3 157.4 61.7 156.2 60.1 155.8"/>

  <!-- ホールド（壁の表面に載る。ボルトの頭が当たる面は平ら） -->
  <path stroke-width="1.6" d="M 96.3 44.1 C 97.8 44 102.3 43.7 105.3 43.4 C 108.3 43.2 111.3 42.9 114.4 42.7 C 117.4 42.4 120.4 42.2 123.4 41.9 C 126.4 41.7 129.4 41.4 132.4 41.1 C 135.4 40.9 138.4 40.6 141.4 40.3 C 144.4 40.1 148.1 38.6 150.4 39.6 C 152.7 40.6 153.6 44.1 155.3 46.3 C 156.9 48.6 158.5 50.8 160.1 53.1 C 161.7 55.4 163.3 57.6 164.9 59.9 C 166.5 62.2 168.1 64.5 169.7 66.8 C 171.3 69 173.4 71.4 174.5 73.6 C 175.5 75.9 175.4 78.1 175.8 80.3 C 176.2 82.6 176.7 84.8 177.1 87.1 C 177.6 89.3 178.3 92.7 178.5 93.8"/>
  <path stroke-width="1.6" d="M 178 145.6 C 177.7 147.1 177.1 151.4 176.6 154.3 C 176.2 157.2 175.7 160.1 175.3 163 C 174.8 165.9 175.2 169.4 173.9 171.8 C 172.6 174.1 169.6 175.3 167.5 177.1 C 165.3 178.9 163.2 180.6 161 182.4 C 158.9 184.1 156.7 185.9 154.6 187.7 C 152.5 189.4 150.3 191.2 148.2 192.9 C 146 194.7 144.2 197.2 141.8 198.2 C 139.3 199.1 136.2 198.4 133.4 198.6 C 130.6 198.7 127.8 198.8 125 198.9 C 122.2 199 119.5 199.1 116.7 199.3 C 113.9 199.4 111.1 199.5 108.4 199.6 C 105.6 199.7 101.8 200.9 100 199.9 C 98.3 198.9 98.8 195.9 98.1 193.8 C 97.5 191.8 96.5 188.8 96.2 187.8"/>
  <path stroke-width="1.6" d="M 178 94.1 C 178 95.8 178 102.4 178 104.1"/>
  <path stroke-width="1.6" d="M 177.8 135.9 C 177.8 137.6 177.8 144.3 177.8 145.9"/>

  <!-- ホールドと壁が当たっている面 -->
  <path stroke-width="1" d="M 96 43.7 C 96 45.2 96 49.5 96 52.4 C 96 55.3 96 58.2 95.9 61.1 C 95.9 64 95.9 66.9 95.9 69.8 C 95.9 72.8 95.9 75.7 95.9 78.6 C 95.9 81.5 95.9 84.4 95.9 87.3 C 95.8 90.2 95.8 94.6 95.8 96"/>
  <path stroke-width="1" d="M 95.8 144 C 95.8 145.4 95.8 149.9 95.8 152.8 C 95.8 155.7 95.8 158.7 95.8 161.6 C 95.8 164.5 95.8 167.5 95.8 170.4 C 95.8 173.4 95.9 176.3 95.9 179.2 C 95.9 182.2 95.9 186.6 95.9 188"/>

  <!-- ボルト：軸（ホールドを貫き、筒のねじに入る） -->
  <path stroke-width="1.6" d="M 63.9 103.7 C 65.5 103.7 70.2 103.7 73.4 103.7 C 76.5 103.7 79.7 103.7 82.9 103.8 C 86 103.8 89.2 103.8 92.3 103.9 C 95.5 103.9 98.7 103.9 101.8 104 C 105 104 108.1 104 111.3 104.1 C 114.5 104.1 117.6 104.1 120.8 104.2 C 124 104.2 127.1 104.2 130.3 104.2 C 133.5 104.2 136.6 104.2 139.8 104.2 C 143 104.2 146.1 104.2 149.3 104.2 C 152.4 104.2 155.6 104.2 158.8 104.2 C 161.9 104.2 165.1 104.3 168.3 104.3 C 171.4 104.3 176.2 104.3 177.8 104.3"/>
  <path stroke-width="1.6" d="M 64 135.6 C 65.5 135.6 70.3 135.6 73.5 135.6 C 76.7 135.6 79.8 135.6 83 135.6 C 86.2 135.6 89.4 135.6 92.6 135.6 C 95.8 135.6 99 135.7 102.2 135.7 C 105.4 135.7 108.6 135.7 111.8 135.7 C 115 135.7 118.2 135.7 121.3 135.7 C 124.5 135.7 127.7 135.7 130.9 135.7 C 134 135.7 137.2 135.7 140.4 135.7 C 143.5 135.7 146.7 135.7 149.8 135.7 C 153 135.7 156.1 135.7 159.3 135.7 C 162.4 135.7 165.6 135.6 168.7 135.6 C 171.9 135.6 176.6 135.6 178.2 135.6"/>
  <path stroke-width="1" d="M 63.8 103.9 C 63.8 105.2 63.8 109.2 63.8 111.9 C 63.8 114.6 63.8 117.2 63.8 119.9 C 63.8 122.6 63.8 125.2 63.8 128 C 63.8 130.7 63.8 135 63.8 136.4"/>

  <!-- ボルト：頭（ホールドを壁に押し付ける） -->
  <path stroke-width="1.6" d="M 178.3 94.5 C 179.9 94.5 184.9 94.5 188.3 94.5 C 191.6 94.4 194.9 94.4 198.2 94.4 C 201.5 94.4 206.5 92.9 208.1 94.3 C 209.8 95.7 208.1 100 208.1 102.9 C 208 105.8 208 108.6 208 111.5 C 208 114.4 208 117.2 207.9 120.1 C 207.9 123 207.9 125.8 207.9 128.7 C 207.9 131.6 207.9 134.5 207.9 137.4 C 207.9 140.3 209.6 144.6 207.9 146.1 C 206.2 147.5 201.2 146.1 197.9 146.1 C 194.5 146.1 191.2 146.1 187.8 146.1 C 184.5 146.2 179.4 146.2 177.8 146.2"/>

  <!-- 頭に開いた六角穴（外からは見えない） -->
  <path stroke-width="0.6" stroke-dasharray="4 3" d="M 207.9 107.7 C 206.6 107.8 202.6 107.8 199.9 107.8 C 197.2 107.8 193.2 106.5 191.9 107.8 C 190.5 109.2 191.8 113.2 191.8 115.9 C 191.8 118.6 191.8 121.3 191.8 124 C 191.7 126.7 190.4 130.7 191.7 132.1 C 193 133.5 197 132.2 199.7 132.2 C 202.4 132.2 206.5 132.3 207.9 132.3"/>
</svg>
